#usda 1.0
(
    "Recorded from /joint_states (URDF: /ws/assets/urdf/robot.urdf) at 20.0 Hz"
    defaultPrim = "arm"
    framesPerSecond = 20
    metersPerUnit = 1
    startTimeCode = 0
    timeCodesPerSecond = 20
    upAxis = "Z"
)

def Xform "arm"
{
    def "base"
    {
        def Xform "joint_fr3_base_joint" (
            "joint=fr3_base_joint type=fixed axis=[0.0, 0.0, 0.0]"
        )
        {
            quatf xformOp:orient = (1, 0, 0, 0)
            quatf xformOp:orient.timeSamples = {
                0: (1, 0, 0, 0),
                1: (1, 0, 0, 0),
                2: (1, 0, 0, 0),
                3: (1, 0, 0, 0),
                4: (1, 0, 0, 0),
                5: (1, 0, 0, 0),
                6: (1, 0, 0, 0),
                7: (1, 0, 0, 0),
                8: (1, 0, 0, 0),
                9: (1, 0, 0, 0),
                10: (1, 0, 0, 0),
                11: (1, 0, 0, 0),
                12: (1, 0, 0, 0),
                13: (1, 0, 0, 0),
                14: (1, 0, 0, 0),
                15: (1, 0, 0, 0),
                16: (1, 0, 0, 0),
                17: (1, 0, 0, 0),
                18: (1, 0, 0, 0),
                19: (1, 0, 0, 0),
                20: (1, 0, 0, 0),
                21: (1, 0, 0, 0),
                22: (1, 0, 0, 0),
                23: (1, 0, 0, 0),
                24: (1, 0, 0, 0),
                25: (1, 0, 0, 0),
                26: (1, 0, 0, 0),
                27: (1, 0, 0, 0),
                28: (1, 0, 0, 0),
                29: (1, 0, 0, 0),
                30: (1, 0, 0, 0),
                31: (1, 0, 0, 0),
                32: (1, 0, 0, 0),
                33: (1, 0, 0, 0),
                34: (1, 0, 0, 0),
                35: (1, 0, 0, 0),
                36: (1, 0, 0, 0),
                37: (1, 0, 0, 0),
                38: (1, 0, 0, 0),
                39: (1, 0, 0, 0),
                40: (1, 0, 0, 0),
                41: (1, 0, 0, 0),
                42: (1, 0, 0, 0),
                43: (1, 0, 0, 0),
                44: (1, 0, 0, 0),
                45: (1, 0, 0, 0),
                46: (1, 0, 0, 0),
                47: (1, 0, 0, 0),
                48: (1, 0, 0, 0),
                49: (1, 0, 0, 0),
                50: (1, 0, 0, 0),
                51: (1, 0, 0, 0),
                52: (1, 0, 0, 0),
                53: (1, 0, 0, 0),
                54: (1, 0, 0, 0),
                55: (1, 0, 0, 0),
                56: (1, 0, 0, 0),
                57: (1, 0, 0, 0),
                58: (1, 0, 0, 0),
                59: (1, 0, 0, 0),
                60: (1, 0, 0, 0),
                61: (1, 0, 0, 0),
                62: (1, 0, 0, 0),
                63: (1, 0, 0, 0),
                64: (1, 0, 0, 0),
                65: (1, 0, 0, 0),
                66: (1, 0, 0, 0),
                67: (1, 0, 0, 0),
                68: (1, 0, 0, 0),
                69: (1, 0, 0, 0),
                70: (1, 0, 0, 0),
                71: (1, 0, 0, 0),
                72: (1, 0, 0, 0),
                73: (1, 0, 0, 0),
                74: (1, 0, 0, 0),
                75: (1, 0, 0, 0),
                76: (1, 0, 0, 0),
                77: (1, 0, 0, 0),
                78: (1, 0, 0, 0),
                79: (1, 0, 0, 0),
                80: (1, 0, 0, 0),
                81: (1, 0, 0, 0),
                82: (1, 0, 0, 0),
                83: (1, 0, 0, 0),
                84: (1, 0, 0, 0),
                85: (1, 0, 0, 0),
                86: (1, 0, 0, 0),
                87: (1, 0, 0, 0),
                88: (1, 0, 0, 0),
                89: (1, 0, 0, 0),
                90: (1, 0, 0, 0),
                91: (1, 0, 0, 0),
                92: (1, 0, 0, 0),
                93: (1, 0, 0, 0),
                94: (1, 0, 0, 0),
                95: (1, 0, 0, 0),
                96: (1, 0, 0, 0),
                97: (1, 0, 0, 0),
                98: (1, 0, 0, 0),
                99: (1, 0, 0, 0),
                100: (1, 0, 0, 0),
                101: (1, 0, 0, 0),
            }
            uniform token[] xformOpOrder = ["xformOp:orient"]

            def Xform "fr3_link0"
            {
                quatf xformOp:orient = (1, 0, 0, 0)
                double3 xformOp:translate = (0, 0, 0)
                uniform token[] xformOpOrder = ["xformOp:translate", "xformOp:orient"]
            }
        }
    }

    def "fr3_link0"
    {
        def Xform "joint_fr3_joint1" (
            "joint=fr3_joint1 type=revolute axis=[0.0, 0.0, 1.0]"
        )
        {
            quatf xformOp:orient = (1, 0, 0, 0)
            quatf xformOp:orient.timeSamples = {
                0: (0.9612179, -0, -0, -0.27579015),
                1: (0.9612179, -0, -0, -0.27579015),
                2: (0.9680589, -0, -0, -0.25072291),
                3: (0.98386234, -0, -0, -0.17892715),
                4: (0.99547976, -0, -0, -0.0949741),
                5: (0.9998538, -0, -0, -0.017100047),
                6: (0.9988993, 0, 0, 0.046906505),
                7: (0.99543077, 0, 0, 0.095486134),
                8: (0.9915008, 0, 0, 0.13010053),
                9: (0.98818576, 0, 0, 0.15326089),
                10: (0.9858772, 0, 0, 0.16746981),
                11: (0.98460513, 0, 0, 0.17479348),
                12: (0.9842515, 0, 0, 0.17677398),
                13: (0.98465735, 0, 0, 0.1744991),
                14: (0.9856689, 0, 0, 0.16869152),
                15: (0.987144, 0, 0, 0.15983358),
                16: (0.98894835, 0, 0, 0.14826055),
                17: (0.99095017, 0, 0, 0.13423043),
                18: (0.99301296, 0, 0, 0.118005134),
                19: (0.99500406, 0, 0, 0.09983431),
                20: (0.9967958, 0, 0, 0.0799887),
                21: (0.99827, 0, 0, 0.05879655),
                22: (0.9993303, 0, 0, 0.0365921),
                23: (0.9999052, 0, 0, 0.013767787),
                24: (0.9999567, -0, -0, -0.009304125),
                25: (0.9994808, -0, -0, -0.032220136),
                26: (0.99851066, -0, -0, -0.05455718),
                27: (0.9971136, -0, -0, -0.0759241),
                28: (0.99538964, -0, -0, -0.09591385),
                29: (0.99345744, -0, -0, -0.114203066),
                30: (0.99145013, -0, -0, -0.13048619),
                31: (0.98950607, -0, -0, -0.1444914),
                32: (0.9877594, -0, -0, -0.15598497),
                33: (0.98633164, -0, -0, -0.16477211),
                34: (0.9853206, -0, -0, -0.17071383),
                35: (0.9847958, -0, -0, -0.17371581),
                36: (0.9847937, -0, -0, -0.17372768),
                37: (0.98531634, -0, -0, -0.17073888),
                38: (0.98632604, -0, -0, -0.1648057),
                39: (0.9877499, -0, -0, -0.1560453),
                40: (0.98949194, -0, -0, -0.14458784),
                41: (0.9914357, -0, -0, -0.13059591),
                42: (0.99344736, -0, -0, -0.114290595),
                43: (0.9953839, -0, -0, -0.09597315),
                44: (0.9971097, -0, -0, -0.07597478),
                45: (0.9985056, -0, -0, -0.054649115),
                46: (0.9994768, -0, -0, -0.032343857),
                47: (0.9999554, -0, -0, -0.009440692),
                48: (0.99990714, 0, 0, 0.013628755),
                49: (0.9993353, 0, 0, 0.036455214),
                50: (0.9982802, 0, 0, 0.058621973),
                51: (0.9968156, 0, 0, 0.07974071),
                52: (0.99504226, 0, 0, 0.09945278),
                53: (0.9930849, 0, 0, 0.1173982),
                54: (0.9910779, 0, 0, 0.13328375),
                55: (0.9891601, 0, 0, 0.14684097),
                56: (0.98746425, 0, 0, 0.15784301),
                57: (0.98610765, 0, 0, 0.1661076),
                58: (0.98518366, 0, 0, 0.17150277),
                59: (0.98475564, 0, 0, 0.17394365),
                60: (0.9848547, 0, 0, 0.17338166),
                61: (0.9854741, 0, 0, 0.16982576),
                62: (0.98656905, 0, 0, 0.16334493),
                63: (0.98806334, 0, 0, 0.15404809),
                64: (0.98985505, 0, 0, 0.14208071),
                65: (0.99182165, 0, 0, 0.12763171),
                66: (0.9938281, 0, 0, 0.11093096),
                67: (0.9957348, 0, 0, 0.092261374),
                68: (0.9974073, 0, 0, 0.071962416),
                69: (0.99872917, 0, 0, 0.050398763),
                70: (0.9996095, 0, 0, 0.027944792),
                71: (0.99998754, 0, 0, 0.004988448),
                72: (0.99983674, -0, -0, -0.01807022),
                73: (0.9991666, -0, -0, -0.040817756),
                74: (0.9980239, -0, -0, -0.06283501),
                75: (0.9964897, -0, -0, -0.0837151),
                76: (0.99466926, -0, -0, -0.10311676),
                77: (0.99268997, -0, -0, -0.12069228),
                78: (0.9906908, -0, -0, -0.13613126),
                79: (0.98880845, -0, -0, -0.14919046),
                80: (0.9871719, -0, -0, -0.15966105),
                81: (0.9858939, -0, -0, -0.1673714),
                82: (0.9850627, -0, -0, -0.172196),
                83: (0.9847349, -0, -0, -0.17406078),
                84: (0.9849339, -0, -0, -0.17293127),
                85: (0.985648, -0, -0, -0.16881362),
                86: (0.9868387, -0, -0, -0.16170758),
                87: (0.9884305, -0, -0, -0.15167458),
                88: (0.99028736, -0, -0, -0.13903594),
                89: (0.992269, -0, -0, -0.12410584),
                90: (0.9942522, -0, -0, -0.107063375),
                91: (0.9961063, -0, -0, -0.08816027),
                92: (0.997706, -0, -0, -0.06769601),
                93: (0.99893975, -0, -0, -0.04603652),
                94: (0.99972326, -0, -0, -0.023524333),
                95: (0.9999999, -0, -0, -0.0005312192),
                96: (0.9997469, 0, 0, 0.022497121),
                97: (0.9989816, 0, 0, 0.045119796),
                98: (0.99775887, 0, 0, 0.06691231),
                99: (0.9961627, 0, 0, 0.08752063),
                100: (0.9943034, 0, 0, 0.10658655),
                101: (0.99231017, 0, 0, 0.123776056),
            }
            uniform token[] xformOpOrder = ["xformOp:orient"]

            def Xform "fr3_link1"
            {
                quatf xformOp:orient = (1, 0, 0, 0)
                double3 xformOp:translate = (0, 0, 0)
                uniform token[] xformOpOrder = ["xformOp:translate", "xformOp:orient"]
            }
        }
    }

    def "fr3_link1"
    {
        def Xform "joint_fr3_joint2" (
            "joint=fr3_joint2 type=revolute axis=[0.0, 0.0, 1.0]"
        )
        {
            quatf xformOp:orient = (-0.027415568, -0.027415568, 0, 0)
            quatf xformOp:orient.timeSamples = {
                0: (0.9946077, -0, -0, -0.10370878),
                1: (0.9946077, -0, -0, -0.10370878),
                2: (0.99698657, -0, -0, -0.07757433),
                3: (0.99999136, -0, -0, -0.004160051),
                4: (0.99693865, 0, 0, 0.07818803),
                5: (0.9886894, 0, 0, 0.14997736),
                6: (0.97903794, 0, 0, 0.20367792),
                7: (0.9711583, 0, 0, 0.23843561),
                8: (0.96657324, 0, 0, 0.2563907),
                9: (0.96546555, 0, 0, 0.26053086),
                10: (0.96726996, 0, 0, 0.25374964),
                11: (0.97115564, 0, 0, 0.23844647),
                12: (0.97628015, 0, 0, 0.21651104),
                13: (0.9818884, 0, 0, 0.18946008),
                14: (0.9873685, 0, 0, 0.15844068),
                15: (0.9922343, 0, 0, 0.124382794),
                16: (0.9961128, 0, 0, 0.088086225),
                17: (0.99873555, 0, 0, 0.05027253),
                18: (0.9999317, 0, 0, 0.011686887),
                19: (0.9996361, -0, -0, -0.026974492),
                20: (0.99788284, -0, -0, -0.06503733),
                21: (0.99480474, -0, -0, -0.10180154),
                22: (0.9906209, -0, -0, -0.13663916),
                23: (0.98562837, -0, -0, -0.16892834),
                24: (0.9801725, -0, -0, -0.19814615),
                25: (0.9746303, -0, -0, -0.2238208),
                26: (0.96938825, -0, -0, -0.24553294),
                27: (0.96480507, -0, -0, -0.26296613),
                28: (0.9611964, -0, -0, -0.27586487),
                29: (0.95880675, -0, -0, -0.28405914),
                30: (0.957798, -0, -0, -0.2874422),
                31: (0.9582415, -0, -0, -0.2859601),
                32: (0.9601051, -0, -0, -0.27963942),
                33: (0.96325356, -0, -0, -0.26859367),
                34: (0.96747875, -0, -0, -0.25295237),
                35: (0.9724952, -0, -0, -0.23292303),
                36: (0.97796077, -0, -0, -0.20878881),
                37: (0.9835029, -0, -0, -0.18089214),
                38: (0.9887293, -0, -0, -0.14971438),
                39: (0.99326706, -0, -0, -0.115847066),
                40: (0.9968064, -0, -0, -0.07985635),
                41: (0.99910307, -0, -0, -0.04234484),
                42: (0.999992, -0, -0, -0.0039894977),
                43: (0.9994068, 0, 0, 0.034439344),
                44: (0.99739075, 0, 0, 0.07219217),
                45: (0.99408984, 0, 0, 0.108560435),
                46: (0.98973477, 0, 0, 0.14291643),
                47: (0.9846272, 0, 0, 0.17466919),
                48: (0.97912633, 0, 0, 0.20325255),
                49: (0.97361374, 0, 0, 0.22820218),
                50: (0.9684709, 0, 0, 0.2491268),
                51: (0.9640513, 0, 0, 0.26571614),
                52: (0.96065515, 0, 0, 0.27774394),
                53: (0.9585138, 0, 0, 0.28504607),
                54: (0.9577746, 0, 0, 0.28752017),
                55: (0.95848846, 0, 0, 0.28513125),
                56: (0.96061105, 0, 0, 0.27789634),
                57: (0.9639973, 0, 0, 0.26591203),
                58: (0.9684029, 0, 0, 0.24939093),
                59: (0.97352886, 0, 0, 0.2285641),
                60: (0.97903764, 0, 0, 0.20367949),
                61: (0.9845464, 0, 0, 0.1751237),
                62: (0.98966444, 0, 0, 0.14340249),
                63: (0.99403405, 0, 0, 0.109070286),
                64: (0.99735224, 0, 0, 0.07272216),
                65: (0.9993871, 0, 0, 0.0350061),
                66: (0.9999942, -0, -0, -0.003393374),
                67: (0.99912804, -0, -0, -0.04175054),
                68: (0.99684966, -0, -0, -0.07931426),
                69: (0.9933224, -0, -0, -0.11537193),
                70: (0.9887952, -0, -0, -0.14927842),
                71: (0.98358417, -0, -0, -0.1804499),
                72: (0.9780504, -0, -0, -0.20836848),
                73: (0.97257787, -0, -0, -0.23257749),
                74: (0.9675454, -0, -0, -0.25269732),
                75: (0.963301, -0, -0, -0.26842344),
                76: (0.9601339, -0, -0, -0.2795405),
                77: (0.9582573, -0, -0, -0.28590724),
                78: (0.9577946, -0, -0, -0.28745353),
                79: (0.9587796, -0, -0, -0.28415087),
                80: (0.96114707, -0, -0, -0.27603683),
                81: (0.96474105, -0, -0, -0.26320097),
                82: (0.9693179, -0, -0, -0.2458104),
                83: (0.97455364, -0, -0, -0.22415452),
                84: (0.9800923, -0, -0, -0.19854237),
                85: (0.98555773, -0, -0, -0.16933987),
                86: (0.99058783, -0, -0, -0.1368788),
                87: (0.9948236, -0, -0, -0.101617254),
                88: (0.99791384, -0, -0, -0.06456),
                89: (0.99964607, -0, -0, -0.026602717),
                90: (0.99993145, 0, 0, 0.011707665),
                91: (0.9987622, 0, 0, 0.049739785),
                92: (0.996222, 0, 0, 0.08684294),
                93: (0.9924892, 0, 0, 0.12233233),
                94: (0.9878175, 0, 0, 0.15561673),
                95: (0.98252296, 0, 0, 0.18614152),
                96: (0.9769759, 0, 0, 0.21334949),
                97: (0.97156394, 0, 0, 0.23677744),
                98: (0.96666336, 0, 0, 0.2560506),
                99: (0.9626076, 0, 0, 0.27089944),
                100: (0.95967317, 0, 0, 0.28111818),
                101: (0.9580613, 0, 0, 0.28656337),
            }
            uniform token[] xformOpOrder = ["xformOp:orient"]

            def Xform "fr3_link2"
            {
                quatf xformOp:orient = (1, 0, 0, 0)
                double3 xformOp:translate = (0, 0, 0)
                uniform token[] xformOpOrder = ["xformOp:translate", "xformOp:orient"]
            }
        }
    }

    def "fr3_link2"
    {
        def Xform "joint_fr3_joint3" (
            "joint=fr3_joint3 type=revolute axis=[0.0, 0.0, 1.0]"
        )
        {
            quatf xformOp:orient = (0.027415568, 0.027415568, 0, 0)
            quatf xformOp:orient.timeSamples = {
                0: (0.97812283, -0, -0, -0.2080283),
                1: (0.97812283, -0, -0, -0.2080283),
                2: (0.9718016, -0, -0, -0.23580015),
                3: (0.9497649, -0, -0, -0.3129642),
                4: (0.9170152, -0, -0, -0.3988523),
                5: (0.88002896, -0, -0, -0.47491997),
                6: (0.8444041, -0, -0, -0.53570676),
                7: (0.81310606, -0, -0, -0.5821156),
                8: (0.7867469, -0, -0, -0.6172757),
                9: (0.76455206, -0, -0, -0.64456195),
                10: (0.74528575, -0, -0, -0.6667452),
                11: (0.72775954, -0, -0, -0.6858324),
                12: (0.71108025, -0, -0, -0.7031109),
                13: (0.6947311, -0, -0, -0.7192696),
                14: (0.6784764, -0, -0, -0.73462224),
                15: (0.66231245, -0, -0, -0.74922776),
                16: (0.6463984, -0, -0, -0.7630001),
                17: (0.6309902, -0, -0, -0.7757908),
                18: (0.6164135, -0, -0, -0.78742266),
                19: (0.603001, -0, -0, -0.79774046),
                20: (0.59107083, -0, -0, -0.80661964),
                21: (0.58092517, -0, -0, -0.813957),
                22: (0.57281595, -0, -0, -0.819684),
                23: (0.5669498, -0, -0, -0.82375234),
                24: (0.5634796, -0, -0, -0.82613),
                25: (0.56249446, -0, -0, -0.82680106),
                26: (0.56402314, -0, -0, -0.825759),
                27: (0.56803054, -0, -0, -0.82300746),
                28: (0.5744039, -0, -0, -0.81857204),
                29: (0.5830098, -0, -0, -0.81246513),
                30: (0.59365374, -0, -0, -0.8047206),
                31: (0.6061009, -0, -0, -0.79538774),
                32: (0.62006205, -0, -0, -0.78455275),
                33: (0.6351984, -0, -0, -0.772349),
                34: (0.6511986, -0, -0, -0.7589073),
                35: (0.66773474, -0, -0, -0.7443993),
                36: (0.68447673, -0, -0, -0.72903466),
                37: (0.70111275, -0, -0, -0.7130504),
                38: (0.71732414, -0, -0, -0.6967396),
                39: (0.73280954, -0, -0, -0.6804338),
                40: (0.74733794, -0, -0, -0.66444415),
                41: (0.7607158, -0, -0, -0.64908516),
                42: (0.77277416, -0, -0, -0.63468105),
                43: (0.7833626, -0, -0, -0.6215649),
                44: (0.792371, -0, -0, -0.61003953),
                45: (0.7997222, -0, -0, -0.6003702),
                46: (0.80536544, -0, -0, -0.5927786),
                47: (0.80926627, -0, -0, -0.58744204),
                48: (0.8114029, -0, -0, -0.5844872),
                49: (0.8117639, -0, -0, -0.58398575),
                50: (0.8103509, -0, -0, -0.5859449),
                51: (0.8071675, -0, -0, -0.5903225),
                52: (0.8022275, -0, -0, -0.5970185),
                53: (0.79557073, -0, -0, -0.6058607),
                54: (0.7872318, -0, -0, -0.6166572),
                55: (0.7772771, -0, -0, -0.62915844),
                56: (0.7657934, -0, -0, -0.6430867),
                57: (0.7529075, -0, -0, -0.65812635),
                58: (0.7388093, -0, -0, -0.67391455),
                59: (0.7236924, -0, -0, -0.69012266),
                60: (0.70775515, -0, -0, -0.7064578),
                61: (0.6912605, -0, -0, -0.72260565),
                62: (0.6745189, -0, -0, -0.7382576),
                63: (0.6578517, -0, -0, -0.7531475),
                64: (0.64158463, -0, -0, -0.7670523),
                65: (0.62604904, -0, -0, -0.7797837),
                66: (0.6115729, -0, -0, -0.79118806),
                67: (0.5984767, -0, -0, -0.80114025),
                68: (0.5870618, -0, -0, -0.80954206),
                69: (0.5775916, -0, -0, -0.8163259),
                70: (0.57028234, -0, -0, -0.82144874),
                71: (0.56530404, -0, -0, -0.8248826),
                72: (0.5627742, -0, -0, -0.8266107),
                73: (0.5627555, -0, -0, -0.8266234),
                74: (0.56524265, -0, -0, -0.82492465),
                75: (0.570171, -0, -0, -0.82152605),
                76: (0.57744175, -0, -0, -0.8164319),
                77: (0.5868691, -0, -0, -0.80968183),
                78: (0.5982162, -0, -0, -0.80133474),
                79: (0.6112433, -0, -0, -0.79144275),
                80: (0.62566686, -0, -0, -0.78009033),
                81: (0.6411806, -0, -0, -0.76739),
                82: (0.6574552, -0, -0, -0.75349367),
                83: (0.6741246, -0, -0, -0.73861766),
                84: (0.6908638, -0, -0, -0.72298497),
                85: (0.7073716, -0, -0, -0.7068419),
                86: (0.7234024, -0, -0, -0.69042665),
                87: (0.73871166, -0, -0, -0.6740216),
                88: (0.75293726, -0, -0, -0.6580923),
                89: (0.76582855, -0, -0, -0.64304477),
                90: (0.7772832, -0, -0, -0.6291509),
                91: (0.78720695, -0, -0, -0.6166889),
                92: (0.7955259, -0, -0, -0.60591954),
                93: (0.80217797, -0, -0, -0.597085),
                94: (0.80711985, -0, -0, -0.5903876),
                95: (0.8103197, -0, -0, -0.58598804),
                96: (0.8117565, -0, -0, -0.5839961),
                97: (0.81142527, -0, -0, -0.58445615),
                98: (0.8093307, -0, -0, -0.5873532),
                99: (0.8054706, -0, -0, -0.59263575),
                100: (0.79986507, -0, -0, -0.60017985),
                101: (0.7925489, -0, -0, -0.6098084),
            }
            uniform token[] xformOpOrder = ["xformOp:orient"]

            def Xform "fr3_link3"
            {
                quatf xformOp:orient = (1, 0, 0, 0)
                double3 xformOp:translate = (0, 0, 0)
                uniform token[] xformOpOrder = ["xformOp:translate", "xformOp:orient"]
            }
        }
    }

    def "fr3_link3"
    {
        def Xform "joint_fr3_joint4" (
            "joint=fr3_joint4 type=revolute axis=[0.0, 0.0, 1.0]"
        )
        {
            quatf xformOp:orient = (0.027415568, 0.027415568, 0, 0)
            quatf xformOp:orient.timeSamples = {
                0: (0.99875575, 0, 0, 0.04986907),
                1: (0.99875575, 0, 0, 0.04986907),
                2: (0.9985871, 0, 0, 0.053140394),
                3: (0.9981969, 0, 0, 0.060025025),
                4: (0.9981146, 0, 0, 0.061377708),
                5: (0.998563, 0, 0, 0.05359062),
                6: (0.9993316, 0, 0, 0.03655626),
                7: (0.99993014, 0, 0, 0.011822224),
                8: (0.9998305, -0, -0, -0.018411232),
                9: (0.9986476, -0, -0, -0.0519902),
                10: (0.99621177, -0, -0, -0.08696063),
                11: (0.99256456, -0, -0, -0.1217195),
                12: (0.98791605, -0, -0, -0.15499008),
                13: (0.98259985, -0, -0, -0.18573497),
                14: (0.9770084, -0, -0, -0.21320073),
                15: (0.97155005, -0, -0, -0.23683435),
                16: (0.96661514, -0, -0, -0.25623265),
                17: (0.96254724, -0, -0, -0.27111393),
                18: (0.9596238, -0, -0, -0.2812865),
                19: (0.95804137, -0, -0, -0.28663003),
                20: (0.95790285, -0, -0, -0.28709248),
                21: (0.95921254, -0, -0, -0.28268585),
                22: (0.96188086, -0, -0, -0.27346876),
                23: (0.9657203, -0, -0, -0.25958487),
                24: (0.9704759, -0, -0, -0.24119802),
                25: (0.9758208, -0, -0, -0.21857224),
                26: (0.98138183, -0, -0, -0.19206683),
                27: (0.98677415, -0, -0, -0.1621012),
                28: (0.991613, -0, -0, -0.12924297),
                29: (0.99557126, -0, -0, -0.09400972),
                30: (0.99837327, -0, -0, -0.057016),
                31: (0.99982095, -0, -0, -0.018921776),
                32: (0.99980897, 0, 0, 0.01954616),
                33: (0.9983396, 0, 0, 0.057602856),
                34: (0.99551827, 0, 0, 0.09456931),
                35: (0.9915427, 0, 0, 0.12978078),
                36: (0.9866902, 0, 0, 0.16261126),
                37: (0.9812963, 0, 0, 0.19250332),
                38: (0.97573805, 0, 0, 0.21894121),
                39: (0.9704061, 0, 0, 0.24147867),
                40: (0.9656655, 0, 0, 0.25978866),
                41: (0.96183956, 0, 0, 0.273614),
                42: (0.95918983, 0, 0, 0.2827629),
                43: (0.95789605, 0, 0, 0.28711516),
                44: (0.95804363, 0, 0, 0.28662246),
                45: (0.9596203, 0, 0, 0.28129855),
                46: (0.96252537, 0, 0, 0.27119157),
                47: (0.9665643, 0, 0, 0.25642443),
                48: (0.9714546, 0, 0, 0.23722541),
                49: (0.9768628, 0, 0, 0.213867),
                50: (0.9824125, 0, 0, 0.18672332),
                51: (0.987723, 0, 0, 0.15621552),
                52: (0.9924272, 0, 0, 0.12283447),
                53: (0.99619013, 0, 0, 0.08720763),
                54: (0.9987524, 0, 0, 0.04993557),
                55: (0.99993145, 0, 0, 0.0117069855),
                56: (0.99964154, -0, -0, -0.026773239),
                57: (0.9979002, -0, -0, -0.06477048),
                58: (0.99483484, -0, -0, -0.10150691),
                59: (0.9906657, -0, -0, -0.13631423),
                60: (0.98567986, -0, -0, -0.16862737),
                61: (0.9802243, -0, -0, -0.19788961),
                62: (0.9746816, -0, -0, -0.22359717),
                63: (0.96943635, -0, -0, -0.24534293),
                64: (0.964848, -0, -0, -0.26280862),
                65: (0.96122986, -0, -0, -0.27574843),
                66: (0.9588293, -0, -0, -0.28398317),
                67: (0.95781034, -0, -0, -0.28740096),
                68: (0.9582403, -0, -0, -0.28596437),
                69: (0.9600877, -0, -0, -0.27969903),
                70: (0.9632281, -0, -0, -0.26868495),
                71: (0.96745086, -0, -0, -0.25305894),
                72: (0.97247034, -0, -0, -0.23302667),
                73: (0.977942, -0, -0, -0.20887655),
                74: (0.98348236, -0, -0, -0.181004),
                75: (0.9887029, -0, -0, -0.14988865),
                76: (0.9932491, -0, -0, -0.11600079),
                77: (0.99679655, -0, -0, -0.07997871),
                78: (0.99909544, -0, -0, -0.04252382),
                79: (0.9999908, -0, -0, -0.0042802896),
                80: (0.99941987, 0, 0, 0.034057558),
                81: (0.99741983, 0, 0, 0.07178872),
                82: (0.99412745, 0, 0, 0.10821565),
                83: (0.9897773, 0, 0, 0.14262117),
                84: (0.98467463, 0, 0, 0.17440161),
                85: (0.97917205, 0, 0, 0.20303239),
                86: (0.9736433, 0, 0, 0.22807615),
                87: (0.96846735, 0, 0, 0.24914058),
                88: (0.96402276, 0, 0, 0.26581982),
                89: (0.9606197, 0, 0, 0.27786648),
                90: (0.95848167, 0, 0, 0.28515422),
                91: (0.95774776, 0, 0, 0.2876096),
                92: (0.95846325, 0, 0, 0.28521612),
                93: (0.9605733, 0, 0, 0.2780268),
                94: (0.9639448, 0, 0, 0.2661023),
                95: (0.968357, 0, 0, 0.24956885),
                96: (0.9735002, 0, 0, 0.22868632),
                97: (0.97901267, 0, 0, 0.20379947),
                98: (0.98451054, 0, 0, 0.1753254),
                99: (0.98962647, 0, 0, 0.14366432),
                100: (0.99400324, 0, 0, 0.10935051),
                101: (0.9973323, 0, 0, 0.07299542),
            }
            uniform token[] xformOpOrder = ["xformOp:orient"]

            def Xform "fr3_link4"
            {
                quatf xformOp:orient = (1, 0, 0, 0)
                double3 xformOp:translate = (0, 0, 0)
                uniform token[] xformOpOrder = ["xformOp:translate", "xformOp:orient"]
            }
        }
    }

    def "fr3_link4"
    {
        def Xform "joint_fr3_joint5" (
            "joint=fr3_joint5 type=revolute axis=[0.0, 0.0, 1.0]"
        )
        {
            quatf xformOp:orient = (-0.027415568, -0.027415568, 0, 0)
            quatf xformOp:orient.timeSamples = {
                0: (0.9754223, -0, -0, -0.22034346),
                1: (0.9754223, -0, -0, -0.22034346),
                2: (0.99173415, -0, -0, -0.12830988),
                3: (0.9914323, 0, 0, 0.13062164),
                4: (0.914147, 0, 0, 0.40538278),
                5: (0.7869403, 0, 0, 0.6170292),
                6: (0.65874606, 0, 0, 0.75236535),
                7: (0.55851895, 0, 0, 0.82949173),
                8: (0.49295306, 0, 0, 0.8700559),
                9: (0.4568904, 0, 0, 0.88952297),
                10: (0.44157404, 0, 0, 0.8972248),
                11: (0.4387542, 0, 0, 0.89860713),
                12: (0.4420918, 0, 0, 0.8969698),
                13: (0.44727445, 0, 0, 0.8943968),
                14: (0.45165244, 0, 0, 0.892194),
                15: (0.45376685, 0, 0, 0.89112043),
                16: (0.45293283, 0, 0, 0.89154464),
                17: (0.44893196, 0, 0, 0.89356595),
                18: (0.44182688, 0, 0, 0.8971003),
                19: (0.43180397, 0, 0, 0.90196747),
                20: (0.41911602, 0, 0, 0.9079327),
                21: (0.40406793, 0, 0, 0.914729),
                22: (0.38696373, 0, 0, 0.92209494),
                23: (0.36814985, 0, 0, 0.9297665),
                24: (0.34795114, 0, 0, 0.9375127),
                25: (0.3267301, 0, 0, 0.9451177),
                26: (0.30488354, 0, 0, 0.95238966),
                27: (0.2828019, 0, 0, 0.9591783),
                28: (0.26092485, 0, 0, 0.9653591),
                29: (0.23962489, 0, 0, 0.97086555),
                30: (0.21928656, 0, 0, 0.9756605),
                31: (0.20028183, 0, 0, 0.97973835),
                32: (0.18297046, 0, 0, 0.9831184),
                33: (0.16769627, 0, 0, 0.9858387),
                34: (0.15473615, 0, 0, 0.9879558),
                35: (0.14432868, 0, 0, 0.9895298),
                36: (0.13666885, 0, 0, 0.9906168),
                37: (0.13190426, 0, 0, 0.99126244),
                38: (0.13012105, 0, 0, 0.9914981),
                39: (0.13134181, 0, 0, 0.9913371),
                40: (0.13554913, 0, 0, 0.99077064),
                41: (0.14268167, 0, 0, 0.9897686),
                42: (0.15261495, 0, 0, 0.9882857),
                43: (0.1651433, 0, 0, 0.9862696),
                44: (0.18001696, 0, 0, 0.9836635),
                45: (0.19695038, 0, 0, 0.98041344),
                46: (0.21565025, 0, 0, 0.97647065),
                47: (0.23577823, 0, 0, 0.9718069),
                48: (0.25693536, 0, 0, 0.9664286),
                49: (0.2787323, 0, 0, 0.9603688),
                50: (0.3007579, 0, 0, 0.95370054),
                51: (0.32262084, 0, 0, 0.94652826),
                52: (0.34394753, 0, 0, 0.93898886),
                53: (0.3643476, 0, 0, 0.931263),
                54: (0.38349858, 0, 0, 0.9235415),
                55: (0.40108982, 0, 0, 0.91603875),
                56: (0.4168479, 0, 0, 0.90897626),
                57: (0.43053237, 0, 0, 0.90257514),
                58: (0.44193238, 0, 0, 0.89704835),
                59: (0.45089173, 0, 0, 0.89257866),
                60: (0.45729533, 0, 0, 0.8893149),
                61: (0.46105963, 0, 0, 0.88736916),
                62: (0.4621404, 0, 0, 0.8868068),
                63: (0.46052682, 0, 0, 0.8876458),
                64: (0.45623764, 0, 0, 0.88985795),
                65: (0.4493237, 0, 0, 0.893369),
                66: (0.4398681, 0, 0, 0.8980624),
                67: (0.42799786, 0, 0, 0.90377975),
                68: (0.41389292, 0, 0, 0.9103256),
                69: (0.39776707, 0, 0, 0.9174864),
                70: (0.3798594, 0, 0, 0.92504424),
                71: (0.36044058, 0, 0, 0.9327822),
                72: (0.33981666, 0, 0, 0.9404917),
                73: (0.3183342, 0, 0, 0.94797856),
                74: (0.29638043, 0, 0, 0.95506996),
                75: (0.27436447, 0, 0, 0.96162575),
                76: (0.2526554, 0, 0, 0.96755636),
                77: (0.2316713, 0, 0, 0.9727941),
                78: (0.21182191, 0, 0, 0.9773083),
                79: (0.19345663, 0, 0, 0.98110884),
                80: (0.17691062, 0, 0, 0.98422694),
                81: (0.16249187, 0, 0, 0.9867099),
                82: (0.15047137, 0, 0, 0.9886144),
                83: (0.14108445, 0, 0, 0.98999757),
                84: (0.13450876, 0, 0, 0.9909124),
                85: (0.13087136, 0, 0, 0.99139935),
                86: (0.13028182, 0, 0, 0.991477),
                87: (0.13279048, 0, 0, 0.9911441),
                88: (0.13825397, 0, 0, 0.9903968),
                89: (0.14649458, 0, 0, 0.9892115),
                90: (0.15740281, 0, 0, 0.98753446),
                91: (0.1707973, 0, 0, 0.9853062),
                92: (0.18644252, 0, 0, 0.98246586),
                93: (0.20403282, 0, 0, 0.97896403),
                94: (0.22327456, 0, 0, 0.9747556),
                95: (0.24383527, 0, 0, 0.9698167),
                96: (0.26529887, 0, 0, 0.9641662),
                97: (0.2872386, 0, 0, 0.95785904),
                98: (0.30923182, 0, 0, 0.9509867),
                99: (0.3309212, 0, 0, 0.9436584),
                100: (0.35192907, 0, 0, 0.9360267),
                101: (0.37189248, 0, 0, 0.9282758),
            }
            uniform token[] xformOpOrder = ["xformOp:orient"]

            def Xform "fr3_link5"
            {
                quatf xformOp:orient = (1, 0, 0, 0)
                double3 xformOp:translate = (0, 0, 0)
                uniform token[] xformOpOrder = ["xformOp:translate", "xformOp:orient"]
            }
        }
    }

    def "fr3_link5"
    {
        def Xform "joint_fr3_joint6" (
            "joint=fr3_joint6 type=revolute axis=[0.0, 0.0, 1.0]"
        )
        {
            quatf xformOp:orient = (0.027415568, 0.027415568, 0, 0)
            quatf xformOp:orient.timeSamples = {
                0: (0.9998875, 0, 0, 0.014999437),
                1: (0.9998875, 0, 0, 0.014999437),
                2: (0.99999493, -0, -0, -0.003178879),
                3: (0.99849176, -0, -0, -0.054901384),
                4: (0.9933672, -0, -0, -0.1149854),
                5: (0.9853978, -0, -0, -0.17026773),
                6: (0.9766154, -0, -0, -0.21499375),
                7: (0.9688425, -0, -0, -0.2476776),
                8: (0.96316475, -0, -0, -0.26891202),
                9: (0.9599806, -0, -0, -0.28006646),
                10: (0.9592308, -0, -0, -0.282624),
                11: (0.9606182, -0, -0, -0.27787164),
                12: (0.96373785, -0, -0, -0.26685086),
                13: (0.96813613, -0, -0, -0.2504246),
                14: (0.97336507, -0, -0, -0.22926068),
                15: (0.9789855, -0, -0, -0.20392993),
                16: (0.9845756, -0, -0, -0.17495944),
                17: (0.9897419, -0, -0, -0.14286664),
                18: (0.99412394, -0, -0, -0.10824803),
                19: (0.99742603, -0, -0, -0.07170303),
                20: (0.9994265, -0, -0, -0.033862513),
                21: (0.99998957, 0, 0, 0.0045630545),
                22: (0.9990798, 0, 0, 0.042889033),
                23: (0.9967641, 0, 0, 0.080381796),
                24: (0.9932043, 0, 0, 0.1163838),
                25: (0.9886483, 0, 0, 0.1502484),
                26: (0.98341763, 0, 0, 0.18135545),
                27: (0.9778758, 0, 0, 0.20918626),
                28: (0.9724143, 0, 0, 0.23326027),
                29: (0.9674058, 0, 0, 0.25323123),
                30: (0.9631919, 0, 0, 0.26881462),
                31: (0.96006125, 0, 0, 0.2797899),
                32: (0.9582258, 0, 0, 0.2860128),
                33: (0.9578067, 0, 0, 0.28741303),
                34: (0.9588348, 0, 0, 0.2839644),
                35: (0.961242, 0, 0, 0.27570605),
                36: (0.9648669, 0, 0, 0.26273924),
                37: (0.96946836, 0, 0, 0.24521656),
                38: (0.97472423, 0, 0, 0.22341134),
                39: (0.980262, 0, 0, 0.19770302),
                40: (0.98570675, 0, 0, 0.16847007),
                41: (0.99068886, 0, 0, 0.13614562),
                42: (0.9948594, 0, 0, 0.101265736),
                43: (0.99791753, 0, 0, 0.0645026),
                44: (0.9996472, 0, 0, 0.026560588),
                45: (0.99992985, -0, -0, -0.011843285),
                46: (0.9987477, -0, -0, -0.050030153),
                47: (0.9961815, -0, -0, -0.08730635),
                48: (0.9924129, -0, -0, -0.122949556),
                49: (0.9877064, -0, -0, -0.15632033),
                50: (0.982393, -0, -0, -0.18682586),
                51: (0.9768428, -0, -0, -0.21395828),
                52: (0.9714369, -0, -0, -0.23729801),
                53: (0.96655124, -0, -0, -0.25647354),
                54: (0.9625189, -0, -0, -0.2712147),
                55: (0.95961565, -0, -0, -0.2813145),
                56: (0.95804185, -0, -0, -0.28662843),
                57: (0.95790493, -0, -0, -0.28708565),
                58: (0.9592059, -0, -0, -0.28270835),
                59: (0.9618569, -0, -0, -0.27355307),
                60: (0.9656892, -0, -0, -0.2597006),
                61: (0.97044027, -0, -0, -0.24134138),
                62: (0.9757762, -0, -0, -0.21877117),
                63: (0.9813279, -0, -0, -0.19234222),
                64: (0.9867147, -0, -0, -0.16246252),
                65: (0.99156445, -0, -0, -0.1296144),
                66: (0.9955392, -0, -0, -0.09434872),
                67: (0.99835694, -0, -0, -0.057300914),
                68: (0.99981594, -0, -0, -0.019186413),
                69: (0.99981445, 0, 0, 0.019263448),
                70: (0.998355, 0, 0, 0.05733554),
                71: (0.99554056, 0, 0, 0.09433431),
                72: (0.9915674, 0, 0, 0.12959225),
                73: (0.98671305, 0, 0, 0.16247255),
                74: (0.98131865, 0, 0, 0.19238949),
                75: (0.9757639, 0, 0, 0.21882583),
                76: (0.9704292, 0, 0, 0.24138606),
                77: (0.96568286, 0, 0, 0.25972408),
                78: (0.9618508, 0, 0, 0.27357456),
                79: (0.95919204, 0, 0, 0.28275552),
                80: (0.9578863, 0, 0, 0.28714776),
                81: (0.9580254, 0, 0, 0.28668338),
                82: (0.95960146, 0, 0, 0.28136286),
                83: (0.96250033, 0, 0, 0.27128044),
                84: (0.9665286, 0, 0, 0.25655892),
                85: (0.97141856, 0, 0, 0.23737302),
                86: (0.9768634, 0, 0, 0.2138644),
                87: (0.9824946, 0, 0, 0.18629123),
                88: (0.98784643, 0, 0, 0.15543292),
                89: (0.99252796, 0, 0, 0.12201716),
                90: (0.99625343, 0, 0, 0.08648179),
                91: (0.99877965, 0, 0, 0.04938863),
                92: (0.9999354, 0, 0, 0.011367132),
                93: (0.9996391, -0, -0, -0.02686344),
                94: (0.99790823, -0, -0, -0.06464626),
                95: (0.9948543, -0, -0, -0.101316094),
                96: (0.99068886, -0, -0, -0.13614559),
                97: (0.98570627, -0, -0, -0.16847311),
                98: (0.9802597, -0, -0, -0.19771425),
                99: (0.9747224, -0, -0, -0.22341956),
                100: (0.9694758, -0, -0, -0.24518703),
                101: (0.96488214, -0, -0, -0.26268327),
            }
            uniform token[] xformOpOrder = ["xformOp:orient"]

            def Xform "fr3_link6"
            {
                quatf xformOp:orient = (1, 0, 0, 0)
                double3 xformOp:translate = (0, 0, 0)
                uniform token[] xformOpOrder = ["xformOp:translate", "xformOp:orient"]
            }
        }
    }

    def "fr3_link6"
    {
        def Xform "joint_fr3_joint7" (
            "joint=fr3_joint7 type=revolute axis=[0.0, 0.0, 1.0]"
        )
        {
            quatf xformOp:orient = (0.027415568, 0.027415568, 0, 0)
            quatf xformOp:orient.timeSamples = {
                0: (1, 0, 0, 0),
                1: (1, 0, 0, 0),
                2: (0.99999994, 0, 0, 0.00026975808),
                3: (0.99999946, 0, 0, 0.0010341248),
                4: (0.99999815, 0, 0, 0.001925942),
                5: (0.9999961, 0, 0, 0.0027804484),
                6: (0.9999937, 0, 0, 0.003546687),
                7: (0.99999106, 0, 0, 0.0042308024),
                8: (0.9999882, 0, 0, 0.004860979),
                9: (0.99998504, 0, 0, 0.0054700286),
                10: (0.99998146, 0, 0, 0.006084568),
                11: (0.9999774, 0, 0, 0.0067229597),
                12: (0.99997264, 0, 0, 0.0073944014),
                13: (0.9999672, 0, 0, 0.0080988705),
                14: (0.999961, 0, 0, 0.008831644),
                15: (0.99995404, 0, 0, 0.009584055),
                16: (0.9999465, 0, 0, 0.010344944),
                17: (0.99993837, 0, 0, 0.011102025),
                18: (0.9999299, 0, 0, 0.011841553),
                19: (0.99992126, 0, 0, 0.012550476),
                20: (0.9999127, 0, 0, 0.013216473),
                21: (0.9999044, 0, 0, 0.013827282),
                22: (0.9998967, 0, 0, 0.014372301),
                23: (0.99988985, 0, 0, 0.014841615),
                24: (0.99988407, 0, 0, 0.015227045),
                25: (0.99987954, 0, 0, 0.015521821),
                26: (0.99987644, 0, 0, 0.01572052),
                27: (0.99987483, 0, 0, 0.01581975),
                28: (0.9998749, 0, 0, 0.015818119),
                29: (0.9998765, 0, 0, 0.015715372),
                30: (0.99987966, 0, 0, 0.015513194),
                31: (0.99988425, 0, 0, 0.015214766),
                32: (0.9998901, 0, 0, 0.014825516),
                33: (0.999897, 0, 0, 0.014353209),
                34: (0.9999047, 0, 0, 0.01380547),
                35: (0.999913, 0, 0, 0.013191502),
                36: (0.9999216, 0, 0, 0.01252175),
                37: (0.99993026, 0, 0, 0.011807254),
                38: (0.99993885, 0, 0, 0.011061111),
                39: (0.99994695, 0, 0, 0.010297615),
                40: (0.9999546, 0, 0, 0.009529397),
                41: (0.99996156, 0, 0, 0.008768865),
                42: (0.99996775, 0, 0, 0.008028907),
                43: (0.9999732, 0, 0, 0.0073232446),
                44: (0.99997777, 0, 0, 0.0066645453),
                45: (0.99998164, 0, 0, 0.006064293),
                46: (0.9999847, 0, 0, 0.005532437),
                47: (0.9999871, 0, 0, 0.005077982),
                48: (0.9999889, 0, 0, 0.0047090743),
                49: (0.99999017, 0, 0, 0.004432126),
                50: (0.99999094, 0, 0, 0.0042518764),
                51: (0.9999913, 0, 0, 0.004171574),
                52: (0.99999124, 0, 0, 0.004192625),
                53: (0.9999907, 0, 0, 0.004314371),
                54: (0.9999897, 0, 0, 0.004535122),
                55: (0.99998826, 0, 0, 0.004851104),
                56: (0.9999862, 0, 0, 0.0052571655),
                57: (0.9999835, 0, 0, 0.005746146),
                58: (0.9999801, 0, 0, 0.006308148),
                59: (0.999976, 0, 0, 0.0069334838),
                60: (0.99997103, 0, 0, 0.007612766),
                61: (0.99996525, 0, 0, 0.008334179),
                62: (0.99995875, 0, 0, 0.009084319),
                63: (0.9999515, 0, 0, 0.009849892),
                64: (0.9999436, 0, 0, 0.010617885),
                65: (0.9999353, 0, 0, 0.011375247),
                66: (0.9999267, 0, 0, 0.012109111),
                67: (0.999918, 0, 0, 0.012806643),
                68: (0.99990946, 0, 0, 0.013455242),
                69: (0.9999014, 0, 0, 0.014043431),
                70: (0.99989396, 0, 0, 0.014561152),
                71: (0.9998875, 0, 0, 0.014999565),
                72: (0.99988216, 0, 0, 0.015351138),
                73: (0.99987817, 0, 0, 0.015609646),
                74: (0.99987566, 0, 0, 0.015770653),
                75: (0.99987465, 0, 0, 0.01583139),
                76: (0.9998753, 0, 0, 0.015790477),
                77: (0.9998776, 0, 0, 0.015649073),
                78: (0.99988127, 0, 0, 0.015410211),
                79: (0.99988633, 0, 0, 0.015077515),
                80: (0.9998926, 0, 0, 0.014656499),
                81: (0.9998998, 0, 0, 0.014154018),
                82: (0.9999078, 0, 0, 0.013578623),
                83: (0.99991626, 0, 0, 0.012941444),
                84: (0.9999249, 0, 0, 0.012253252),
                85: (0.9999336, 0, 0, 0.011525232),
                86: (0.999942, 0, 0, 0.010767188),
                87: (0.9999501, 0, 0, 0.0099905785),
                88: (0.9999575, 0, 0, 0.009216225),
                89: (0.9999642, 0, 0, 0.008461425),
                90: (0.9999701, 0, 0, 0.0077361558),
                91: (0.99997514, 0, 0, 0.0070512863),
                92: (0.99997944, 0, 0, 0.0064175124),
                93: (0.9999829, 0, 0, 0.0058456603),
                94: (0.9999857, 0, 0, 0.005345034),
                95: (0.9999879, 0, 0, 0.0049240934),
                96: (0.99998945, 0, 0, 0.0045907306),
                97: (0.9999905, 0, 0, 0.0043509523),
                98: (0.9999911, 0, 0, 0.0042090216),
                99: (0.9999913, 0, 0, 0.004167688),
                100: (0.99999106, 0, 0, 0.0042277086),
                101: (0.99999034, 0, 0, 0.004388139),
            }
            uniform token[] xformOpOrder = ["xformOp:orient"]

            def Xform "fr3_link7"
            {
                quatf xformOp:orient = (1, 0, 0, 0)
                double3 xformOp:translate = (0, 0, 0)
                uniform token[] xformOpOrder = ["xformOp:translate", "xformOp:orient"]
            }
        }
    }

    def "fr3_link7"
    {
        def Xform "joint_fr3_joint8" (
            "joint=fr3_joint8 type=fixed axis=[0.0, 0.0, 0.0]"
        )
        {
            quatf xformOp:orient = (1, 0, 0, 0)
            quatf xformOp:orient.timeSamples = {
                0: (1, 0, 0, 0),
                1: (1, 0, 0, 0),
                2: (1, 0, 0, 0),
                3: (1, 0, 0, 0),
                4: (1, 0, 0, 0),
                5: (1, 0, 0, 0),
                6: (1, 0, 0, 0),
                7: (1, 0, 0, 0),
                8: (1, 0, 0, 0),
                9: (1, 0, 0, 0),
                10: (1, 0, 0, 0),
                11: (1, 0, 0, 0),
                12: (1, 0, 0, 0),
                13: (1, 0, 0, 0),
                14: (1, 0, 0, 0),
                15: (1, 0, 0, 0),
                16: (1, 0, 0, 0),
                17: (1, 0, 0, 0),
                18: (1, 0, 0, 0),
                19: (1, 0, 0, 0),
                20: (1, 0, 0, 0),
                21: (1, 0, 0, 0),
                22: (1, 0, 0, 0),
                23: (1, 0, 0, 0),
                24: (1, 0, 0, 0),
                25: (1, 0, 0, 0),
                26: (1, 0, 0, 0),
                27: (1, 0, 0, 0),
                28: (1, 0, 0, 0),
                29: (1, 0, 0, 0),
                30: (1, 0, 0, 0),
                31: (1, 0, 0, 0),
                32: (1, 0, 0, 0),
                33: (1, 0, 0, 0),
                34: (1, 0, 0, 0),
                35: (1, 0, 0, 0),
                36: (1, 0, 0, 0),
                37: (1, 0, 0, 0),
                38: (1, 0, 0, 0),
                39: (1, 0, 0, 0),
                40: (1, 0, 0, 0),
                41: (1, 0, 0, 0),
                42: (1, 0, 0, 0),
                43: (1, 0, 0, 0),
                44: (1, 0, 0, 0),
                45: (1, 0, 0, 0),
                46: (1, 0, 0, 0),
                47: (1, 0, 0, 0),
                48: (1, 0, 0, 0),
                49: (1, 0, 0, 0),
                50: (1, 0, 0, 0),
                51: (1, 0, 0, 0),
                52: (1, 0, 0, 0),
                53: (1, 0, 0, 0),
                54: (1, 0, 0, 0),
                55: (1, 0, 0, 0),
                56: (1, 0, 0, 0),
                57: (1, 0, 0, 0),
                58: (1, 0, 0, 0),
                59: (1, 0, 0, 0),
                60: (1, 0, 0, 0),
                61: (1, 0, 0, 0),
                62: (1, 0, 0, 0),
                63: (1, 0, 0, 0),
                64: (1, 0, 0, 0),
                65: (1, 0, 0, 0),
                66: (1, 0, 0, 0),
                67: (1, 0, 0, 0),
                68: (1, 0, 0, 0),
                69: (1, 0, 0, 0),
                70: (1, 0, 0, 0),
                71: (1, 0, 0, 0),
                72: (1, 0, 0, 0),
                73: (1, 0, 0, 0),
                74: (1, 0, 0, 0),
                75: (1, 0, 0, 0),
                76: (1, 0, 0, 0),
                77: (1, 0, 0, 0),
                78: (1, 0, 0, 0),
                79: (1, 0, 0, 0),
                80: (1, 0, 0, 0),
                81: (1, 0, 0, 0),
                82: (1, 0, 0, 0),
                83: (1, 0, 0, 0),
                84: (1, 0, 0, 0),
                85: (1, 0, 0, 0),
                86: (1, 0, 0, 0),
                87: (1, 0, 0, 0),
                88: (1, 0, 0, 0),
                89: (1, 0, 0, 0),
                90: (1, 0, 0, 0),
                91: (1, 0, 0, 0),
                92: (1, 0, 0, 0),
                93: (1, 0, 0, 0),
                94: (1, 0, 0, 0),
                95: (1, 0, 0, 0),
                96: (1, 0, 0, 0),
                97: (1, 0, 0, 0),
                98: (1, 0, 0, 0),
                99: (1, 0, 0, 0),
                100: (1, 0, 0, 0),
                101: (1, 0, 0, 0),
            }
            uniform token[] xformOpOrder = ["xformOp:orient"]
        }
    }

    def "fr3_link8"
    {
        def Xform "joint_fr3_hand_joint" (
            "joint=fr3_hand_joint type=fixed axis=[0.0, 0.0, 0.0]"
        )
        {
            quatf xformOp:orient = (-0.013707784, 0, 0, -0.013707784)
            quatf xformOp:orient.timeSamples = {
                0: (1, 0, 0, 0),
                1: (1, 0, 0, 0),
                2: (1, 0, 0, 0),
                3: (1, 0, 0, 0),
                4: (1, 0, 0, 0),
                5: (1, 0, 0, 0),
                6: (1, 0, 0, 0),
                7: (1, 0, 0, 0),
                8: (1, 0, 0, 0),
                9: (1, 0, 0, 0),
                10: (1, 0, 0, 0),
                11: (1, 0, 0, 0),
                12: (1, 0, 0, 0),
                13: (1, 0, 0, 0),
                14: (1, 0, 0, 0),
                15: (1, 0, 0, 0),
                16: (1, 0, 0, 0),
                17: (1, 0, 0, 0),
                18: (1, 0, 0, 0),
                19: (1, 0, 0, 0),
                20: (1, 0, 0, 0),
                21: (1, 0, 0, 0),
                22: (1, 0, 0, 0),
                23: (1, 0, 0, 0),
                24: (1, 0, 0, 0),
                25: (1, 0, 0, 0),
                26: (1, 0, 0, 0),
                27: (1, 0, 0, 0),
                28: (1, 0, 0, 0),
                29: (1, 0, 0, 0),
                30: (1, 0, 0, 0),
                31: (1, 0, 0, 0),
                32: (1, 0, 0, 0),
                33: (1, 0, 0, 0),
                34: (1, 0, 0, 0),
                35: (1, 0, 0, 0),
                36: (1, 0, 0, 0),
                37: (1, 0, 0, 0),
                38: (1, 0, 0, 0),
                39: (1, 0, 0, 0),
                40: (1, 0, 0, 0),
                41: (1, 0, 0, 0),
                42: (1, 0, 0, 0),
                43: (1, 0, 0, 0),
                44: (1, 0, 0, 0),
                45: (1, 0, 0, 0),
                46: (1, 0, 0, 0),
                47: (1, 0, 0, 0),
                48: (1, 0, 0, 0),
                49: (1, 0, 0, 0),
                50: (1, 0, 0, 0),
                51: (1, 0, 0, 0),
                52: (1, 0, 0, 0),
                53: (1, 0, 0, 0),
                54: (1, 0, 0, 0),
                55: (1, 0, 0, 0),
                56: (1, 0, 0, 0),
                57: (1, 0, 0, 0),
                58: (1, 0, 0, 0),
                59: (1, 0, 0, 0),
                60: (1, 0, 0, 0),
                61: (1, 0, 0, 0),
                62: (1, 0, 0, 0),
                63: (1, 0, 0, 0),
                64: (1, 0, 0, 0),
                65: (1, 0, 0, 0),
                66: (1, 0, 0, 0),
                67: (1, 0, 0, 0),
                68: (1, 0, 0, 0),
                69: (1, 0, 0, 0),
                70: (1, 0, 0, 0),
                71: (1, 0, 0, 0),
                72: (1, 0, 0, 0),
                73: (1, 0, 0, 0),
                74: (1, 0, 0, 0),
                75: (1, 0, 0, 0),
                76: (1, 0, 0, 0),
                77: (1, 0, 0, 0),
                78: (1, 0, 0, 0),
                79: (1, 0, 0, 0),
                80: (1, 0, 0, 0),
                81: (1, 0, 0, 0),
                82: (1, 0, 0, 0),
                83: (1, 0, 0, 0),
                84: (1, 0, 0, 0),
                85: (1, 0, 0, 0),
                86: (1, 0, 0, 0),
                87: (1, 0, 0, 0),
                88: (1, 0, 0, 0),
                89: (1, 0, 0, 0),
                90: (1, 0, 0, 0),
                91: (1, 0, 0, 0),
                92: (1, 0, 0, 0),
                93: (1, 0, 0, 0),
                94: (1, 0, 0, 0),
                95: (1, 0, 0, 0),
                96: (1, 0, 0, 0),
                97: (1, 0, 0, 0),
                98: (1, 0, 0, 0),
                99: (1, 0, 0, 0),
                100: (1, 0, 0, 0),
                101: (1, 0, 0, 0),
            }
            uniform token[] xformOpOrder = ["xformOp:orient"]

            def Xform "fr3_hand"
            {
                quatf xformOp:orient = (1, 0, 0, 0)
                double3 xformOp:translate = (0, 0, 0)
                uniform token[] xformOpOrder = ["xformOp:translate", "xformOp:orient"]
            }
        }
    }

    def "fr3_hand"
    {
        def Xform "joint_fr3_hand_tcp_joint" (
            "joint=fr3_hand_tcp_joint type=fixed axis=[0.0, 0.0, 0.0]"
        )
        {
            quatf xformOp:orient = (1, 0, 0, 0)
            quatf xformOp:orient.timeSamples = {
                0: (1, 0, 0, 0),
                1: (1, 0, 0, 0),
                2: (1, 0, 0, 0),
                3: (1, 0, 0, 0),
                4: (1, 0, 0, 0),
                5: (1, 0, 0, 0),
                6: (1, 0, 0, 0),
                7: (1, 0, 0, 0),
                8: (1, 0, 0, 0),
                9: (1, 0, 0, 0),
                10: (1, 0, 0, 0),
                11: (1, 0, 0, 0),
                12: (1, 0, 0, 0),
                13: (1, 0, 0, 0),
                14: (1, 0, 0, 0),
                15: (1, 0, 0, 0),
                16: (1, 0, 0, 0),
                17: (1, 0, 0, 0),
                18: (1, 0, 0, 0),
                19: (1, 0, 0, 0),
                20: (1, 0, 0, 0),
                21: (1, 0, 0, 0),
                22: (1, 0, 0, 0),
                23: (1, 0, 0, 0),
                24: (1, 0, 0, 0),
                25: (1, 0, 0, 0),
                26: (1, 0, 0, 0),
                27: (1, 0, 0, 0),
                28: (1, 0, 0, 0),
                29: (1, 0, 0, 0),
                30: (1, 0, 0, 0),
                31: (1, 0, 0, 0),
                32: (1, 0, 0, 0),
                33: (1, 0, 0, 0),
                34: (1, 0, 0, 0),
                35: (1, 0, 0, 0),
                36: (1, 0, 0, 0),
                37: (1, 0, 0, 0),
                38: (1, 0, 0, 0),
                39: (1, 0, 0, 0),
                40: (1, 0, 0, 0),
                41: (1, 0, 0, 0),
                42: (1, 0, 0, 0),
                43: (1, 0, 0, 0),
                44: (1, 0, 0, 0),
                45: (1, 0, 0, 0),
                46: (1, 0, 0, 0),
                47: (1, 0, 0, 0),
                48: (1, 0, 0, 0),
                49: (1, 0, 0, 0),
                50: (1, 0, 0, 0),
                51: (1, 0, 0, 0),
                52: (1, 0, 0, 0),
                53: (1, 0, 0, 0),
                54: (1, 0, 0, 0),
                55: (1, 0, 0, 0),
                56: (1, 0, 0, 0),
                57: (1, 0, 0, 0),
                58: (1, 0, 0, 0),
                59: (1, 0, 0, 0),
                60: (1, 0, 0, 0),
                61: (1, 0, 0, 0),
                62: (1, 0, 0, 0),
                63: (1, 0, 0, 0),
                64: (1, 0, 0, 0),
                65: (1, 0, 0, 0),
                66: (1, 0, 0, 0),
                67: (1, 0, 0, 0),
                68: (1, 0, 0, 0),
                69: (1, 0, 0, 0),
                70: (1, 0, 0, 0),
                71: (1, 0, 0, 0),
                72: (1, 0, 0, 0),
                73: (1, 0, 0, 0),
                74: (1, 0, 0, 0),
                75: (1, 0, 0, 0),
                76: (1, 0, 0, 0),
                77: (1, 0, 0, 0),
                78: (1, 0, 0, 0),
                79: (1, 0, 0, 0),
                80: (1, 0, 0, 0),
                81: (1, 0, 0, 0),
                82: (1, 0, 0, 0),
                83: (1, 0, 0, 0),
                84: (1, 0, 0, 0),
                85: (1, 0, 0, 0),
                86: (1, 0, 0, 0),
                87: (1, 0, 0, 0),
                88: (1, 0, 0, 0),
                89: (1, 0, 0, 0),
                90: (1, 0, 0, 0),
                91: (1, 0, 0, 0),
                92: (1, 0, 0, 0),
                93: (1, 0, 0, 0),
                94: (1, 0, 0, 0),
                95: (1, 0, 0, 0),
                96: (1, 0, 0, 0),
                97: (1, 0, 0, 0),
                98: (1, 0, 0, 0),
                99: (1, 0, 0, 0),
                100: (1, 0, 0, 0),
                101: (1, 0, 0, 0),
            }
            uniform token[] xformOpOrder = ["xformOp:orient"]
        }

        def Xform "joint_fr3_finger_joint1" (
            "joint=fr3_finger_joint1 type=prismatic axis=[0.0, 1.0, 0.0]"
        )
        {
            double3 xformOp:translate.timeSamples = {
                0: (0, 0, 0.0584),
                1: (0, 0, 0.0584),
                2: (0, 0, 0.0584),
                3: (0, 0, 0.0584),
                4: (0, 0, 0.0584),
                5: (0, 0, 0.0584),
                6: (0, 0, 0.0584),
                7: (0, 0, 0.0584),
                8: (0, 0, 0.0584),
                9: (0, 0, 0.0584),
                10: (0, 0, 0.0584),
                11: (0, 0, 0.0584),
                12: (0, 0, 0.0584),
                13: (0, 0, 0.0584),
                14: (0, 0, 0.0584),
                15: (0, 0, 0.0584),
                16: (0, 0, 0.0584),
                17: (0, 0, 0.0584),
                18: (0, 0, 0.0584),
                19: (0, 0, 0.0584),
                20: (0, 0, 0.0584),
                21: (0, 0, 0.0584),
                22: (0, 0, 0.0584),
                23: (0, 0, 0.0584),
                24: (0, 0, 0.0584),
                25: (0, 0, 0.0584),
                26: (0, 0, 0.0584),
                27: (0, 0, 0.0584),
                28: (0, 0, 0.0584),
                29: (0, 0, 0.0584),
                30: (0, 0, 0.0584),
                31: (0, 0, 0.0584),
                32: (0, 0, 0.0584),
                33: (0, 0, 0.0584),
                34: (0, 0, 0.0584),
                35: (0, 0, 0.0584),
                36: (0, 0, 0.0584),
                37: (0, 0, 0.0584),
                38: (0, 0, 0.0584),
                39: (0, 0, 0.0584),
                40: (0, 0, 0.0584),
                41: (0, 0, 0.0584),
                42: (0, 0, 0.0584),
                43: (0, 0, 0.0584),
                44: (0, 0, 0.0584),
                45: (0, 0, 0.0584),
                46: (0, 0, 0.0584),
                47: (0, 0, 0.0584),
                48: (0, 0, 0.0584),
                49: (0, 0, 0.0584),
                50: (0, 0, 0.0584),
                51: (0, 0, 0.0584),
                52: (0, 0, 0.0584),
                53: (0, 0, 0.0584),
                54: (0, 0, 0.0584),
                55: (0, 0, 0.0584),
                56: (0, 0, 0.0584),
                57: (0, 0, 0.0584),
                58: (0, 0, 0.0584),
                59: (0, 0, 0.0584),
                60: (0, 0, 0.0584),
                61: (0, 0, 0.0584),
                62: (0, 0, 0.0584),
                63: (0, 0, 0.0584),
                64: (0, 0, 0.0584),
                65: (0, 0, 0.0584),
                66: (0, 0, 0.0584),
                67: (0, 0, 0.0584),
                68: (0, 0, 0.0584),
                69: (0, 0, 0.0584),
                70: (0, 0, 0.0584),
                71: (0, 0, 0.0584),
                72: (0, 0, 0.0584),
                73: (0, 0, 0.0584),
                74: (0, 0, 0.0584),
                75: (0, 0, 0.0584),
                76: (0, 0, 0.0584),
                77: (0, 0, 0.0584),
                78: (0, 0, 0.0584),
                79: (0, 0, 0.0584),
                80: (0, 0, 0.0584),
                81: (0, 0, 0.0584),
                82: (0, 0, 0.0584),
                83: (0, 0, 0.0584),
                84: (0, 0, 0.0584),
                85: (0, 0, 0.0584),
                86: (0, 0, 0.0584),
                87: (0, 0, 0.0584),
                88: (0, 0, 0.0584),
                89: (0, 0, 0.0584),
                90: (0, 0, 0.0584),
                91: (0, 0, 0.0584),
                92: (0, 0, 0.0584),
                93: (0, 0, 0.0584),
                94: (0, 0, 0.0584),
                95: (0, 0, 0.0584),
                96: (0, 0, 0.0584),
                97: (0, 0, 0.0584),
                98: (0, 0, 0.0584),
                99: (0, 0, 0.0584),
                100: (0, 0, 0.0584),
                101: (0, 0, 0.0584),
            }
            uniform token[] xformOpOrder = ["xformOp:translate"]

            def Xform "fr3_leftfinger"
            {
                quatf xformOp:orient = (1, 0, 0, 0)
                double3 xformOp:translate = (0, 0, 0)
                uniform token[] xformOpOrder = ["xformOp:translate", "xformOp:orient"]
            }
        }

        def Xform "joint_fr3_finger_joint2" (
            "joint=fr3_finger_joint2 type=prismatic axis=[0.0, 1.0, 0.0]"
        )
        {
            double3 xformOp:translate.timeSamples = {
                0: (0, 0, 0.0584),
                1: (0, 0, 0.0584),
                2: (0, 0, 0.0584),
                3: (0, 0, 0.0584),
                4: (0, 0, 0.0584),
                5: (0, 0, 0.0584),
                6: (0, 0, 0.0584),
                7: (0, 0, 0.0584),
                8: (0, 0, 0.0584),
                9: (0, 0, 0.0584),
                10: (0, 0, 0.0584),
                11: (0, 0, 0.0584),
                12: (0, 0, 0.0584),
                13: (0, 0, 0.0584),
                14: (0, 0, 0.0584),
                15: (0, 0, 0.0584),
                16: (0, 0, 0.0584),
                17: (0, 0, 0.0584),
                18: (0, 0, 0.0584),
                19: (0, 0, 0.0584),
                20: (0, 0, 0.0584),
                21: (0, 0, 0.0584),
                22: (0, 0, 0.0584),
                23: (0, 0, 0.0584),
                24: (0, 0, 0.0584),
                25: (0, 0, 0.0584),
                26: (0, 0, 0.0584),
                27: (0, 0, 0.0584),
                28: (0, 0, 0.0584),
                29: (0, 0, 0.0584),
                30: (0, 0, 0.0584),
                31: (0, 0, 0.0584),
                32: (0, 0, 0.0584),
                33: (0, 0, 0.0584),
                34: (0, 0, 0.0584),
                35: (0, 0, 0.0584),
                36: (0, 0, 0.0584),
                37: (0, 0, 0.0584),
                38: (0, 0, 0.0584),
                39: (0, 0, 0.0584),
                40: (0, 0, 0.0584),
                41: (0, 0, 0.0584),
                42: (0, 0, 0.0584),
                43: (0, 0, 0.0584),
                44: (0, 0, 0.0584),
                45: (0, 0, 0.0584),
                46: (0, 0, 0.0584),
                47: (0, 0, 0.0584),
                48: (0, 0, 0.0584),
                49: (0, 0, 0.0584),
                50: (0, 0, 0.0584),
                51: (0, 0, 0.0584),
                52: (0, 0, 0.0584),
                53: (0, 0, 0.0584),
                54: (0, 0, 0.0584),
                55: (0, 0, 0.0584),
                56: (0, 0, 0.0584),
                57: (0, 0, 0.0584),
                58: (0, 0, 0.0584),
                59: (0, 0, 0.0584),
                60: (0, 0, 0.0584),
                61: (0, 0, 0.0584),
                62: (0, 0, 0.0584),
                63: (0, 0, 0.0584),
                64: (0, 0, 0.0584),
                65: (0, 0, 0.0584),
                66: (0, 0, 0.0584),
                67: (0, 0, 0.0584),
                68: (0, 0, 0.0584),
                69: (0, 0, 0.0584),
                70: (0, 0, 0.0584),
                71: (0, 0, 0.0584),
                72: (0, 0, 0.0584),
                73: (0, 0, 0.0584),
                74: (0, 0, 0.0584),
                75: (0, 0, 0.0584),
                76: (0, 0, 0.0584),
                77: (0, 0, 0.0584),
                78: (0, 0, 0.0584),
                79: (0, 0, 0.0584),
                80: (0, 0, 0.0584),
                81: (0, 0, 0.0584),
                82: (0, 0, 0.0584),
                83: (0, 0, 0.0584),
                84: (0, 0, 0.0584),
                85: (0, 0, 0.0584),
                86: (0, 0, 0.0584),
                87: (0, 0, 0.0584),
                88: (0, 0, 0.0584),
                89: (0, 0, 0.0584),
                90: (0, 0, 0.0584),
                91: (0, 0, 0.0584),
                92: (0, 0, 0.0584),
                93: (0, 0, 0.0584),
                94: (0, 0, 0.0584),
                95: (0, 0, 0.0584),
                96: (0, 0, 0.0584),
                97: (0, 0, 0.0584),
                98: (0, 0, 0.0584),
                99: (0, 0, 0.0584),
                100: (0, 0, 0.0584),
                101: (0, 0, 0.0584),
            }
            uniform token[] xformOpOrder = ["xformOp:translate"]

            def Xform "fr3_rightfinger"
            {
                quatf xformOp:orient = (1, 0, 0, 0)
                double3 xformOp:translate = (0, 0, 0)
                uniform token[] xformOpOrder = ["xformOp:translate", "xformOp:orient"]
            }
        }
    }
}

